<svg xmlns="http://www.w3.org/2000/svg" xmlns:xlink="http://www.w3.org/1999/xlink" width="1367" zoomAndPan="magnify" viewBox="34 196 1367 184" height="184" preserveAspectRatio="xMidYMid meet" version="1.0"><defs><g/></defs><g fill="#09c682" fill-opacity="1"><g transform="translate(31.523436, 375.088403)"><g><path d="M 174.078125 -174.078125 L 114.75 0 L 62.109375 0 L 2.78125 -174.078125 L 43.453125 -174.078125 L 88.84375 -33.140625 L 134.25 -174.078125 Z M 174.078125 -174.078125 "/></g></g></g><g fill="#09c682" fill-opacity="1"><g transform="translate(208.100046, 375.088403)"><g><path d="M 155.140625 -32.59375 L 155.140625 0 L 16.4375 0 L 16.4375 -174.078125 L 155.140625 -174.078125 L 155.140625 -141.484375 L 54.59375 -141.484375 L 54.59375 -102.5 L 143.4375 -102.5 L 143.4375 -72.140625 L 54.59375 -72.140625 L 54.59375 -32.59375 Z M 155.140625 -32.59375 "/></g></g></g><g fill="#ffffff" fill-opacity="1"><g transform="translate(371.589832, 375.088403)"><g><path d="M 53.46875 -133.96875 L 53.46875 -40.109375 C 60.894531 -36.578125 68.132812 -34.066406 75.1875 -32.578125 C 82.25 -31.097656 89.773438 -30.359375 97.765625 -30.359375 C 106.859375 -30.359375 116.367188 -31.285156 126.296875 -33.140625 C 136.234375 -34.992188 145.472656 -37.59375 154.015625 -40.9375 L 154.015625 -6.125 C 145.285156 -2.78125 135.863281 -0.226562 125.75 1.53125 C 115.632812 3.289062 104.726562 4.171875 93.03125 4.171875 C 80.03125 4.171875 67.03125 2.457031 54.03125 -0.96875 C 41.03125 -4.40625 27.847656 -9.929688 14.484375 -17.546875 L 14.484375 -156.53125 C 27.847656 -164.132812 41.03125 -169.65625 54.03125 -173.09375 C 67.03125 -176.53125 80.03125 -178.25 93.03125 -178.25 C 104.726562 -178.25 115.632812 -177.316406 125.75 -175.453125 C 135.863281 -173.597656 145.285156 -171.003906 154.015625 -167.671875 L 154.015625 -132.859375 C 145.472656 -136.191406 136.234375 -138.832031 126.296875 -140.78125 C 116.367188 -142.738281 106.859375 -143.71875 97.765625 -143.71875 C 89.773438 -143.71875 82.25 -142.972656 75.1875 -141.484375 C 68.132812 -139.992188 60.894531 -137.488281 53.46875 -133.96875 Z M 53.46875 -133.96875 "/></g></g></g><g fill="#ffffff" fill-opacity="1"><g transform="translate(533.126783, 375.088403)"><g><path d="M 168.5 -17.546875 C 156.613281 -10.117188 144.3125 -4.640625 131.59375 -1.109375 C 118.875 2.410156 105.832031 4.171875 92.46875 4.171875 C 78.914062 4.171875 65.820312 2.410156 53.1875 -1.109375 C 40.5625 -4.640625 28.21875 -10.117188 16.15625 -17.546875 L 16.15625 -174.078125 L 54.3125 -174.078125 L 54.3125 -40.109375 C 60.0625 -36.578125 66 -34.066406 72.125 -32.578125 C 78.257812 -31.097656 85.039062 -30.359375 92.46875 -30.359375 C 99.894531 -30.359375 106.671875 -31.097656 112.796875 -32.578125 C 118.921875 -34.066406 124.769531 -36.578125 130.34375 -40.109375 L 130.34375 -174.078125 L 168.5 -174.078125 Z M 168.5 -17.546875 "/></g></g></g><g fill="#ffffff" fill-opacity="1"><g transform="translate(717.780278, 375.088403)"><g><path d="M 87.453125 -51.25 C 81.691406 -51.25 76.117188 -51.335938 70.734375 -51.515625 C 65.359375 -51.703125 60.160156 -51.984375 55.140625 -52.359375 L 55.140625 0 L 16.984375 0 L 16.984375 -174.078125 C 26.453125 -175.367188 36.195312 -176.382812 46.21875 -177.125 C 56.25 -177.875 67.300781 -178.25 79.375 -178.25 C 95.90625 -178.25 111.875 -176.4375 127.28125 -172.8125 C 142.6875 -169.195312 156.425781 -163.769531 168.5 -156.53125 L 168.5 -70.75 C 157.726562 -64.25 146.679688 -59.789062 135.359375 -57.375 L 171.5625 0 L 129.234375 0 L 97.484375 -51.796875 C 95.804688 -51.617188 94.128906 -51.484375 92.453125 -51.390625 C 90.785156 -51.296875 89.117188 -51.25 87.453125 -51.25 Z M 55.140625 -142.59375 L 55.140625 -83.28125 C 59.785156 -82.90625 64.707031 -82.578125 69.90625 -82.296875 C 75.101562 -82.023438 80.675781 -81.890625 86.625 -81.890625 C 87.550781 -81.890625 88.476562 -81.890625 89.40625 -81.890625 C 90.332031 -81.890625 91.257812 -81.976562 92.1875 -82.15625 C 99.800781 -82.34375 106.765625 -83.269531 113.078125 -84.9375 C 119.390625 -86.613281 125.425781 -89.03125 131.1875 -92.1875 L 131.1875 -133.40625 C 119.851562 -139.71875 106.851562 -143.15625 92.1875 -143.71875 L 86.625 -143.71875 C 80.675781 -143.71875 75.054688 -143.625 69.765625 -143.4375 C 64.472656 -143.25 59.597656 -142.96875 55.140625 -142.59375 Z M 55.140625 -142.59375 "/></g></g></g><g fill="#ffffff" fill-opacity="1"><g transform="translate(899.927092, 375.088403)"><g><path d="M 132.578125 0 L 132.578125 -54.59375 L 54.03125 -54.59375 L 54.03125 0 L 16.15625 0 L 16.15625 -156.53125 C 28.96875 -164.132812 41.78125 -169.65625 54.59375 -173.09375 C 67.40625 -176.53125 80.304688 -178.25 93.296875 -178.25 C 106.484375 -178.25 119.390625 -176.53125 132.015625 -173.09375 C 144.640625 -169.65625 157.359375 -164.132812 170.171875 -156.53125 L 170.171875 0 Z M 54.03125 -133.96875 L 54.03125 -87.734375 L 132.578125 -87.734375 L 132.578125 -133.96875 C 120.128906 -140.46875 107.035156 -143.71875 93.296875 -143.71875 C 79.367188 -143.71875 66.28125 -140.46875 54.03125 -133.96875 Z M 54.03125 -133.96875 "/></g></g></g><g fill="#ffffff" fill-opacity="1"><g transform="translate(1086.251685, 375.088403)"><g><path d="M 3.625 -141.484375 L 3.625 -174.078125 L 155.140625 -174.078125 L 155.140625 -141.484375 L 98.3125 -141.484375 L 98.3125 0 L 60.4375 0 L 60.4375 -141.484375 Z M 3.625 -141.484375 "/></g></g></g><g fill="#ffffff" fill-opacity="1"><g transform="translate(1245.003526, 375.088403)"><g><path d="M 155.140625 -32.59375 L 155.140625 0 L 16.4375 0 L 16.4375 -174.078125 L 155.140625 -174.078125 L 155.140625 -141.484375 L 54.59375 -141.484375 L 54.59375 -102.5 L 143.4375 -102.5 L 143.4375 -72.140625 L 54.59375 -72.140625 L 54.59375 -32.59375 Z M 155.140625 -32.59375 "/></g></g></g></svg>